inDegrees=yes
name=ik_OwnShooting_orientations.mot
DataType=double
version=3
OpenSimVersion=4.3-2021-08-27-4bc7ad9
endheader
time	pelvis_tilt	pelvis_list	pelvis_rotation	pelvis_tx	pelvis_ty	pelvis_tz	hip_flexion_r	hip_adduction_r	hip_rotation_r	knee_angle_r	knee_angle_r_beta	ankle_angle_r	subtalar_angle_r	mtp_angle_r	hip_flexion_l	hip_adduction_l	hip_rotation_l	knee_angle_l	knee_angle_l_beta	ankle_angle_l	subtalar_angle_l	mtp_angle_l	lumbar_extension	lumbar_bending	lumbar_rotation	arm_flex_r	arm_add_r	arm_rot_r	elbow_flex_r	pro_sup_r	wrist_flex_r	wrist_dev_r	arm_flex_l	arm_add_l	arm_rot_l	elbow_flex_l	pro_sup_l	wrist_flex_l	wrist_dev_l
6.25	0.6767213174857202	-1.384913834084224	-147.3113318251543	0	0.9399999999999999	0	43.23914925858013	-10.04448107330234	0	57.68449516116312	1.006784367913033	-5.02391758651002	0	0	43.23914925858013	-10.04448107330234	0	57.68449516116312	1.006784367913033	-5.02391758651002	0	0	6.466660717511842	9.106183188529709	-37.05148178286969	47.17594130421401	-119.993965537408	89.99338333611219	71.28290951939866	45.27600336279954	0	0	0	-12.03029572395572	0	73.65556066662694	45.27600336279954	0	0
6.26	0.6709056254541762	-1.396978275866059	-147.3196426715249	0	0.9399999999999999	0	43.29437904671343	-10.04084724048705	0	57.74320016788412	1.00780896356772	-5.021587550438546	0	0	43.29437904671343	-10.04084724048705	0	57.74320016788412	1.00780896356772	-5.021587550438546	0	0	6.30096003819878	8.730642506495132	-36.81899135778784	46.87471960566675	-119.9939543289641	89.99332714741898	71.61600244405622	45.25683959584384	0	0	0	-12.08146213287085	0	73.69772905573282	45.25683959584384	0	0
6.27	0.6651318443938817	-1.391748922909267	-147.317374869793	0	0.9399999999999999	0	43.34978393477103	-10.03775712505301	0	57.80351768212643	1.008861702787867	-5.019673160286612	0	0	43.34978393477103	-10.03775712505301	0	57.80351768212643	1.008861702787867	-5.019673160286612	0	0	6.282621303081225	8.715634837652253	-36.72160111464101	46.78044311615778	-119.9939192116066	89.99331377983077	71.63091744202055	45.24002181236881	0	0	0	-12.1364759579996	0	73.74003396227893	45.24002181236881	0	0
6.28	0.6877049703095338	-1.396660464502454	-147.2998914197013	0	0.9399999999999999	0	43.40464091251832	-10.03473671072787	0	57.86330850236772	1.009905249463546	-5.017815073795825	0	0	43.40464091251832	-10.03473671072787	0	57.86330850236772	1.009905249463546	-5.017815073795825	0	0	6.322900048242825	8.672428654931458	-36.78793290756671	46.63841924332321	-119.9939106932009	89.99332222795253	71.7081570689394	45.223509829265	0	0	0	-12.19102119241328	0	73.78192035396971	45.223509829265	0	0
6.29	0.6688189414692881	-1.368032264451215	-147.295373672734	0	0.9399999999999999	0	43.43480982993989	-10.03290177717606	0	57.89552382557698	1.010467512923142	-5.016674508416332	0	0	43.43480982993989	-10.03290177717606	0	57.89552382557698	1.010467512923142	-5.016674508416332	0	0	6.127136693044998	8.007348417464096	-36.90711760087283	45.81307340516621	-119.993952067012	89.99329693242106	72.5598609542628	45.21361668816018	0	0	0	-12.21945113604346	0	73.80495486017357	45.21361668816018	0	0
6.3	0.6947653134678242	-1.413662688374864	-147.3007507369139	0	0.9399999999999999	0	43.44829244476752	-10.03192299669914	0	57.90970446915532	1.010715011843635	-5.016036232545682	0	0	43.44829244476752	-10.03192299669914	0	57.90970446915532	1.010715011843635	-5.016036232545682	0	0	5.84338682360664	7.621384983635473	-35.16895604971841	45.75587009318286	-119.9936410950335	89.99301267106286	72.09711334832768	45.20855016484914	0	0	0	-12.23157580695215	0	73.81524859530012	45.20855016484914	0	0
6.31	0.710292021466174	-1.407993983286622	-147.2889792626941	0	0.9399999999999999	0	43.47415225927163	-10.03037650669477	0	57.93861492826613	1.011219594543382	-5.01508034048905	0	0	43.47415225927163	-10.03037650669477	0	57.93861492826613	1.011219594543382	-5.01508034048905	0	0	4.904276356183007	5.176035419770755	-31.89165142424268	44.90522474154097	-119.9933483544337	89.99212166574257	72.85117070113569	45.20018956089848	0	0	0	-12.25658486870833	0	73.83499317677756	45.20018956089848	0	0
6.32	0.6832023305724338	-1.406916935342854	-147.3039966939919	0	0.9399999999999999	0	43.50084203896312	-10.02886957196865	0	57.96850950679256	1.011741353367164	-5.014166375101968	0	0	43.50084203896312	-10.02886957196865	0	57.96850950679256	1.011741353367164	-5.014166375101968	0	0	4.361219480477122	4.4981728546626	-27.48679744383704	46.68544277396779	-119.992679261511	89.99087309452976	70.49177688574711	45.19192033406224	0	0	0	-12.28269162155733	0	73.85537172047157	45.19192033406224	0	0
6.33	0.6828883452199241	-1.413334006133656	-147.3063750179016	0	0.9399999999999999	0	43.53447063390443	-10.02710378604516	0	58.00658650935133	1.012405922431105	-5.013119129950137	0	0	43.53447063390443	-10.02710378604516	0	58.00658650935133	1.012405922431105	-5.013119129950137	0	0	3.87782172392713	4.023477488210477	-21.57842915708374	50.51691012722186	-119.9913854343603	89.98853045172554	65.76564356637104	45.18205772334747	0	0	0	-12.31626020718352	0	73.88104869609137	45.18205772334747	0	0
6.34	0.6907694857248905	-1.417022685746484	-147.3030212369124	0	0.9399999999999999	0	43.56351465034652	-10.02558764562956	0	58.03939646472303	1.012978564179774	-5.012223734995173	0	0	43.56351465034652	-10.02558764562956	0	58.03939646472303	1.012978564179774	-5.012223734995173	0	0	3.427069867513492	3.349146371712096	-15.55295198190654	55.92659755281788	-119.9893407811324	89.98452516813151	59.38392972100562	45.17356848022751	0	0	0	-12.34523450351112	0	73.90322511968527	45.17356848022751	0	0
6.35	0.6965873086578324	-1.414901020367953	-147.3029868488745	0	0.9399999999999999	0	43.56837869902123	-10.02536550266295	0	58.04582644584444	1.013090788521184	-5.012094207437819	0	0	43.56837869902123	-10.02536550266295	0	58.04582644584444	1.013090788521184	-5.012094207437819	0	0	2.920567712149627	-0.2303777988254774	-11.10428002936282	58.17178783117711	-119.9880262441103	89.97499917486572	57.3281353108881	45.17230405372845	0	0	0	-12.35058501409665	0	73.90693917067929	45.17230405372845	0	0
6.36	0.6996648318679571	-1.421502837383787	-147.2964440845742	0	0.9399999999999999	0	43.57576109879434	-10.02503784546979	0	58.05569088335346	1.013262955434573	-5.011904754455154	0	0	43.57576109879434	-10.02503784546979	0	58.05569088335346	1.013262955434573	-5.011904754455154	0	0	2.451791118772779	-6.737924493460268	-10.16397829851645	53.72191088990908	-119.990261931182	89.94649511828135	64.35598463254216	45.17042661560765	0	0	0	-12.35878500714376	0	73.91257619308276	45.17042661560765	0	0
